HIERARCHY
ROOT Hips
{
  OFFSET 74.0196 97.4445 -31.1285
  CHANNELS 6 Xposition Yposition Zposition Zrotation Xrotation Yrotation
  JOINT RightUpLeg
  {
    OFFSET -8.9458 -8.66707 0.101652
    CHANNELS 3 Zrotation Xrotation Yrotation
    JOINT RightLeg
    {
      OFFSET -2.94875e-013 -44.4227 1.3727
      CHANNELS 3 Zrotation Xrotation Yrotation
      JOINT RightFoot
      {
        OFFSET 0.253549 -42.0924 -1.46059
        CHANNELS 3 Zrotation Xrotation Yrotation
        JOINT RightToes
        {
          OFFSET 0.04 -4.41509 8.4991
          CHANNELS 3 Zrotation Xrotation Yrotation
          End Site
          {
            OFFSET -0.08 -0.137448 9.77979
          }
        }
      }
    }
  }
  JOINT Spine
  {
    OFFSET -5.68434e-014 11.8905 -6.39488e-014
    CHANNELS 3 Zrotation Xrotation Yrotation
    JOINT Spine1
    {
      OFFSET 5.68434e-014 25.6574 0.127663
      CHANNELS 3 Zrotation Xrotation Yrotation
      JOINT HEad
      {
        OFFSET 4.26326e-014 8.73416 0.011341
        CHANNELS 3 Zrotation Xrotation Yrotation
        End Site
        {
          OFFSET -0.29 12.7742 2.51395
        }
      }
      JOINT LeftShoulder1
      {
        OFFSET 8.99 -0.362252 -0.22
        CHANNELS 3 Zrotation Xrotation Yrotation
        JOINT LeftArm
        {
          OFFSET 10.2827 -0.00338 0.322123
          CHANNELS 3 Zrotation Xrotation Yrotation
          JOINT LeftForeArm
          {
            OFFSET 32.7669 0.099144 -1.42434
            CHANNELS 3 Zrotation Xrotation Yrotation
            JOINT LeftHand
            {
              OFFSET 27.5643 0.085362 1.02216
              CHANNELS 3 Zrotation Xrotation Yrotation
              End Site
              {
                OFFSET 16.7443 -0.6 1.50291
              }
            }
          }
        }
      }
      JOINT RightShoulder
      {
        OFFSET -8.99 -0.362252 -0.22
        CHANNELS 3 Zrotation Xrotation Yrotation
        JOINT RightArm
        {
          OFFSET -10.2827 -0.00338 0.322123
          CHANNELS 3 Zrotation Xrotation Yrotation
          JOINT RightForeArm
          {
            OFFSET -32.8971 0.099144 -1.42434
            CHANNELS 3 Zrotation Xrotation Yrotation
            JOINT RightHand
            {
              OFFSET -27.4921 0.085362 1.02216
              CHANNELS 3 Zrotation Xrotation Yrotation
              End Site
              {
                OFFSET -16.6312 -0.6 1.50291
              }
            }
          }
        }
      }
    }
  }
  JOINT LeftUpLeg
  {
    OFFSET 8.9458 -8.66707 0.101652
    CHANNELS 3 Zrotation Xrotation Yrotation
    JOINT LeftLeg
    {
      OFFSET 7.10543e-014 -44.4227 1.3727
      CHANNELS 3 Zrotation Xrotation Yrotation
      JOINT LeftFoot
      {
        OFFSET -0.253549 -42.0924 -1.46059
        CHANNELS 3 Zrotation Xrotation Yrotation
        JOINT LeftToes
        {
          OFFSET -0.04 -4.41509 8.4991
          CHANNELS 3 Zrotation Xrotation Yrotation
          End Site
          {
            OFFSET 0.08 -0.047448 9.77979
          }
        }
      }
    }
  }
}
MOTION
Frames:	20
Frame Time:	0.0166667
80.2005 98.5935 101.629 2.90895 3.53254 -172.234 -4.28172 -1.64205 0.630297 11.8143 33.7408 -8.09705 -0.583067 -6.97142 -0.163681 -21.3529 -33.0953 -5.65817 1.61631 3.29505 1.14842 4.06472 6.83082 2.15859 0.310956 -0.166341 -2.54261 -5.03302e-021 -3.88251e-019 1.21329e-020 -61.846 -27.7179 -11.4447 6.57077 24.0682 -123.867 30.6941 3.92057 -17.8865 25.5362 5.72184 18.4748 55.9715 -31.1994 32.2648 -10.4432 42.0981 138.98 -22.1172 14.5465 -29.0962 15.4348 -19.1372 5.79408 -21.7768 59.8235 22.2685 -10.9834 -1.49199 0.587321 2.34701 -2.52326 6.89944 
80.4464 98.7438 101.184 2.80354 3.75939 -173.742 -4.15108 -1.6378 0.835306 10.9118 34.3056 -6.72282 0.289112 -6.53972 -0.167211 -21.587 -33.657 -5.05961 1.48288 3.46764 1.33075 3.66226 7.16639 2.59045 0.274321 0.0499423 -2.14366 -5.03302e-021 -3.88251e-019 1.21329e-020 -62.3042 -28.5071 -12.2638 6.94174 24.0946 -123.983 30.9276 4.05112 -17.2447 25.3937 5.73265 18.6111 56.0632 -30.8533 31.9866 -10.4332 42.2457 138.491 -22.4416 14.6092 -29.0512 16.0339 -21.539 6.60689 -20.4133 63.1489 19.7984 -11.8183 6.20067 1.3771 5.65982 -6.96995 3.15789 
80.5708 99.1536 100.73 2.53631 3.83348 -175.426 -4.49543 -1.88007 0.936678 10.0633 34.8537 -4.74279 1.93326 -5.99311 -0.189076 -21.0675 -33.3838 -3.91668 1.20707 3.58409 1.59199 3.17235 7.37207 3.14567 0.111803 0.600364 -1.6991 -5.03302e-021 -3.88251e-019 1.21329e-020 -62.7288 -29.0714 -12.8397 7.45149 23.9118 -124.159 31.1829 4.19955 -16.5328 25.1203 5.71743 18.7463 56.139 -30.5236 31.497 -10.2361 42.5316 137.816 -22.9624 14.6504 -28.6817 16.4427 -23.6033 7.18024 -18.8839 65.3124 16.6358 -13.3849 12.6121 2.27497 8.5771 -11.7092 -1.48517 
80.5956 99.7629 100.285 2.11635 3.82779 -177.257 -5.24235 -2.31433 0.923981 9.22547 35.3439 -2.23385 4.17631 -5.14132 -0.247523 -20.1382 -32.5918 -2.52387 0.761456 3.66845 1.90372 2.62231 7.49379 3.75625 -0.188013 1.40527 -1.13912 -5.03302e-021 -3.88251e-019 1.21329e-020 -63.0189 -29.4736 -13.1008 7.97135 23.6259 -124.308 31.4506 4.34938 -15.8179 24.8113 5.70391 18.9153 56.2109 -30.301 30.9847 -9.86773 42.9743 136.959 -23.5489 14.6524 -28.0679 16.6176 -25.2528 7.40217 -17.4958 66.2888 13.2637 -15.3049 17.099 3.18992 10.823 -16.1487 -5.86309 
80.5444 100.485 99.8576 1.59445 3.80725 -179.141 -6.24336 -2.85548 0.805278 8.35342 35.726 0.639412 6.80329 -3.95213 -0.368733 -19.0439 -31.4746 -1.18355 0.182876 3.74484 2.21784 2.04329 7.57979 4.34016 -0.609878 2.35168 -0.450289 -5.03302e-021 -3.88251e-019 1.21329e-020 -63.113 -29.8084 -13.0549 8.35382 23.3958 -124.335 31.7091 4.47933 -15.1897 24.5529 5.71601 19.1453 56.2789 -30.2457 30.5857 -9.39612 43.5249 136.004 -24.0474 14.6149 -27.3808 16.5299 -26.5075 7.22274 -16.2935 66.1903 10.0336 -17.0999 19.543 3.93471 12.3791 -19.7625 -9.26283 
80.4355 101.227 99.4442 1.04605 3.8109 179.043 -7.33243 -3.39398 0.627497 7.45902 35.9454 3.64377 9.56991 -2.57244 -0.565479 -17.9096 -30.1214 -0.117861 -0.443059 3.8273 2.48661 1.46946 7.66311 4.82847 -1.12206 3.32716 0.328065 -5.03302e-021 -3.88251e-019 1.21329e-020 -62.9981 -30.1792 -12.777 8.48028 23.3817 -124.165 31.9156 4.5695 -14.7423 24.3751 5.75909 19.4342 56.363 -30.3741 30.3705 -8.93142 44.1055 135.096 -24.3562 14.5563 -26.8006 16.1836 -27.4446 6.67826 -15.0334 65.2201 7.08858 -18.3412 20.1343 4.32625 13.3092 -22.1564 -11.3786 
80.2819 101.902 99.0312 0.54726 3.84438 177.4 -8.37172 -3.82304 0.467739 6.61645 35.9613 6.51382 12.2126 -1.2442 -0.817191 -16.804 -28.6169 0.576851 -1.01213 3.91556 2.68034 0.934513 7.75261 5.18663 -1.68473 4.24491 1.12643 -5.03302e-021 -3.88251e-019 1.21329e-020 -62.7021 -30.6658 -12.3824 8.29854 23.6823 -123.754 32.0116 4.61116 -14.537 24.2398 5.8162 19.7467 56.5144 -30.6627 30.3575 -8.59234 44.6487 134.383 -24.4648 14.5021 -26.4414 15.6197 -28.154 5.88398 -13.3975 63.5989 4.41149 -18.7739 19.2071 4.28558 13.6405 -23.0334 -12.1 
80.0956 102.445 98.6033 0.144874 3.88696 175.981 -9.27536 -4.08125 0.403088 5.90591 35.7887 9.02333 14.4896 -0.205916 -1.07117 -15.8044 -27.1318 0.95845 -1.45894 3.99832 2.79995 0.459936 7.83564 5.42312 -2.25363 5.05574 1.87231 -5.03302e-021 -3.88251e-019 1.21329e-020 -62.2749 -31.3026 -11.9971 7.83154 24.3009 -123.094 31.9398 4.61366 -14.573 24.0709 5.8578 20.0297 56.7957 -31.0636 30.5323 -8.46218 45.115 133.97 -24.4341 14.4726 -26.331 14.9039 -28.706 4.99145 -11.2188 61.493 1.90986 -18.4177 17.1412 3.87891 13.3096 -22.2072 -11.4873 
79.8866 102.819 98.1493 -0.130244 3.90582 174.776 -9.97786 -4.14285 0.475771 5.3392 35.447 11.0564 16.2502 0.401491 -1.27003 -15.0116 -25.9148 1.21203 -1.74382 4.05738 2.86687 0.067898 7.88519 5.58066 -2.78629 5.74527 2.51279 -5.03302e-021 -3.88251e-019 1.21329e-020 -61.7686 -32.0753 -11.7306 7.15411 25.1593 -122.21 31.6659 4.60188 -14.787 23.8046 5.85849 20.2379 57.2462 -31.5224 30.8644 -8.56254 45.488 133.883 -24.3416 14.4769 -26.4379 14.1298 -29.1266 4.13441 -8.53253 58.9507 -0.552216 -17.5681 14.3634 3.28174 12.2155 -19.744 -9.84081 
79.66 103.023 97.6641 -0.252393 3.87115 173.73 -10.4172 -4.00103 0.679666 4.83751 34.9273 12.6282 17.4779 0.555883 -1.38081 -14.5116 -25.1869 1.55554 -1.84559 4.07628 2.90956 -0.225191 7.87539 5.71711 -3.25357 6.32181 3.0293 -5.03302e-021 -3.88251e-019 1.21329e-020 -61.2182 -32.9387 -11.6514 6.35145 26.1474 -121.15 31.1917 4.60598 -15.0786 23.4242 5.80901 20.3492 57.8609 -31.9866 31.3171 -8.85453 45.7628 134.076 -24.2352 14.5127 -26.709 13.4013 -29.3921 3.40077 -5.50521 55.8941 -3.12837 -16.6662 11.406 2.69388 10.4267 -16.1583 -7.64365 
79.418 103.069 97.1519 -0.218589 3.7699 172.759 -10.5643 -3.68674 0.971661 4.27417 34.2527 13.8567 18.2664 0.294919 -1.39868 -14.3182 -25.0214 2.13134 -1.79753 4.05002 2.95876 -0.41061 7.79546 5.88336 -3.65307 6.79915 3.44431 -5.03302e-021 -3.88251e-019 1.21329e-020 -60.6239 -33.8521 -11.7677 5.47631 27.1804 -119.98 30.5523 4.64989 -15.3455 22.9624 5.71711 20.3643 58.5917 -32.4054 31.8572 -9.262 45.943 134.439 -24.1257 14.5685 -27.0812 12.7858 -29.4451 2.82649 -2.36112 52.1783 -5.93903 -16.1037 8.90924 2.26416 8.34486 -12.3827 -5.39033 
79.1537 102.976 96.6209 -0.0309932 3.60968 171.775 -10.4234 -3.24653 1.28723 3.53328 33.4657 14.9145 18.7706 -0.306012 -1.33972 -14.3532 -25.3103 2.96463 -1.63883 3.98512 3.03391 -0.478684 7.65481 6.10751 -4.013 7.18436 3.82097 -5.03302e-021 -3.88251e-019 1.21329e-020 -59.9358 -34.8174 -12.0192 4.52852 28.2324 -118.756 29.7995 4.74556 -15.5089 22.4777 5.59935 20.2959 59.368 -32.7303 32.4629 -9.69787 46.0512 134.831 -24.0125 14.6265 -27.471 12.3138 -29.1954 2.3955 0.663513 47.6436 -9.03205 -16.0949 7.51922 2.07663 6.58891 -9.41617 -3.49338 
78.8481 102.763 96.0736 0.313209 3.41341 170.696 -10.034 -2.73774 1.5609 2.55597 32.6363 15.9891 19.1521 -1.15112 -1.22849 -14.4964 -25.8528 3.9972 -1.37722 3.89269 3.13961 -0.417768 7.47687 6.39019 -4.38197 7.47724 4.25465 -5.03302e-021 -3.88251e-019 1.21329e-020 -59.04 -35.9103 -12.2794 3.45942 29.3371 -117.499 28.9762 4.89257 -15.5319 22.023 5.47178 20.1597 60.1235 -32.9228 33.1235 -10.0815 46.1453 135.107 -23.9112 14.6682 -27.7732 12.0035 -28.5254 2.04879 3.34357 42.1868 -12.3578 -16.707 7.6793 2.18128 5.69479 -7.93606 -2.29276 
78.4731 102.439 95.4982 0.820133 3.20601 169.435 -9.46791 -2.23873 1.74584 1.35166 31.8769 17.2581 19.5387 -2.12468 -1.09042 -14.6806 -26.5237 5.14788 -0.984412 3.77722 3.27133 -0.218052 7.28181 6.71019 -4.80832 7.68048 4.8576 -5.03302e-021 -3.88251e-019 1.21329e-020 -57.7533 -37.2843 -12.3693 2.19741 30.5636 -116.168 28.104 5.08066 -15.4261 21.6261 5.34589 19.977 60.8073 -32.964 33.8246 -10.3477 46.3161 135.146 -23.8634 14.6807 -27.8823 11.8907 -27.3173 1.70573 5.51176 35.8504 -15.767 -17.9743 9.39771 2.61265 5.84718 -8.10156 -2.04878 
78.0037 102.003 94.868 1.47858 2.99877 167.907 -8.82653 -1.86297 1.82908 -0.0218323 31.344 18.869 20.0003 -3.08283 -0.951089 -14.9573 -27.4029 6.33956 -0.446218 3.63182 3.42392 0.115681 7.06917 7.03593 -5.31711 7.81098 5.73523 -5.03302e-021 -3.88251e-019 1.21329e-020 -55.8235 -39.1339 -12.0754 0.684307 31.9806 -114.652 27.1916 5.29004 -15.2524 21.2913 5.2316 19.7843 61.3699 -32.8534 34.5258 -10.4502 46.6492 134.873 -23.9232 14.6629 -27.7355 12.0153 -25.5126 1.28682 7.12307 28.9165 -19.0368 -19.8853 12.1121 3.35801 6.73775 -9.4851 -2.82423 
77.4307 101.464 94.1531 2.24895 2.77761 166.043 -8.21544 -1.73287 1.82833 -1.49876 31.1581 20.9104 20.5598 -3.82729 -0.844149 -15.4846 -28.7677 7.49174 0.197746 3.44529 3.58651 0.552299 6.81288 7.33839 -5.89214 7.90206 6.95659 -5.03302e-021 -3.88251e-019 1.21329e-020 -52.9399 -41.6041 -11.1748 -1.07714 33.6102 -112.787 26.2601 5.49034 -15.1164 21.0214 5.14336 19.6412 61.7331 -32.5982 35.1449 -10.3613 47.1663 134.267 -24.1292 14.6252 -27.3491 12.3807 -23.1911 0.737096 8.28043 21.9687 -21.9178 -22.1664 14.8013 4.2682 7.66479 -11.1204 -4.28152 
76.7677 100.849 93.3428 3.05896 2.50773 163.826 -7.71394 -1.96008 1.77102 -3.04494 31.3657 23.3949 21.2306 -4.14483 -0.80996 -16.4303 -30.9175 8.51923 0.835378 3.21476 3.73647 1.03754 6.47142 7.59961 -6.46955 7.99376 8.52638 -5.03302e-021 -3.88251e-019 1.21329e-020 -48.7666 -44.661 -9.46625 -2.95146 35.3717 -110.437 25.3707 5.64146 -15.1527 20.8429 5.10381 19.6241 61.7762 -32.213 35.5686 -10.0731 47.7913 133.367 -24.4797 14.585 -26.819 12.931 -20.6672 0.0556116 9.15707 15.9476 -24.1594 -24.121 16.3591 4.98509 7.98134 -11.9124 -5.62317 
76.0441 100.167 92.4511 3.83142 2.15638 161.288 -7.34616 -2.66679 1.66962 -4.68203 32.052 26.2985 22.0305 -3.95003 -0.872109 -17.8517 -33.9352 9.35953 1.35834 2.93724 3.85627 1.50266 6.00409 7.8149 -6.95028 8.11731 10.3697 -5.03302e-021 -3.88251e-019 1.21329e-020 -43.0447 -47.9844 -6.8348 -4.57857 37.0506 -107.64 24.6452 5.70219 -15.4701 20.8102 5.14077 19.8077 61.3648 -31.7359 35.6935 -9.60481 48.3761 132.266 -24.9299 14.5586 -26.2767 13.6048 -18.5641 -0.674195 9.83411 12.204 -25.5478 -24.829 15.9787 5.05817 7.55334 -11.3753 -5.98722 
75.3198 99.4742 91.5406 4.4358 1.7345 158.543 -7.12367 -3.87925 1.51873 -6.47245 33.163 29.4975 23.0145 -3.23488 -1.04612 -19.6288 -37.5667 10.0234 1.51661 2.64161 3.92927 1.84943 5.40687 7.9871 -7.23079 8.28478 12.3386 -5.03302e-021 -3.88251e-019 1.21329e-020 -35.8249 -51.0001 -3.40336 -5.3341 38.3602 -104.753 24.2818 5.64736 -16.0337 20.9874 5.2792 20.239 60.4152 -31.2507 35.4757 -9.01525 48.7741 131.101 -25.4125 14.5549 -25.8275 14.319 -17.2315 -1.27194 10.1587 11.2234 -25.911 -23.9275 13.7605 4.41223 6.71643 -9.94178 -5.09486 
74.6261 98.7463 90.6534 4.87924 1.27606 155.731 -6.95348 -5.59192 1.29012 -8.47621 34.7954 32.8792 24.1477 -2.20895 -1.3041 -21.5007 -41.3336 10.6037 1.40162 2.31485 3.96671 2.04273 4.69406 8.11261 -7.24098 8.48735 14.2369 -5.03302e-021 -3.88251e-019 1.21329e-020 -27.7662 -53.1357 0.251203 -4.51436 39.0946 -102.392 24.5317 5.49461 -16.5226 21.4147 5.53047 20.9128 58.9564 -30.8861 34.9567 -8.40776 48.912 130.038 -25.8686 14.5726 -25.5135 15.171 -16.8233 -1.49714 9.88211 12.9237 -25.309 -21.7555 10.2276 3.34188 5.93417 -8.48233 -3.43753 
